<svg xmlns="http://www.w3.org/2000/svg" xmlns:xlink="http://www.w3.org/1999/xlink" width="620" height="770" viewBox="0 0 620 770" role="img" aria-labelledby="title desc"><title id="title">Sahil Regonda &#8212; Cyber Signal. Software Engineer and AI / ML Builder.</title><desc id="desc">Custom Cyber Signal artwork for Sahil Regonda. Decorative motion is automatic, not mouse- or scroll-controlled. Reduced-motion mode shows a still composition.</desc><defs>
<linearGradient id="bg" x1="0" y1="0" x2="1" y2="1"><stop stop-color="#171322"/><stop offset=".55" stop-color="#0C0C16"/><stop offset="1" stop-color="#151023"/></linearGradient>
<linearGradient id="panel" x1="0" y1="0" x2="1" y2="1"><stop stop-color="#282137"/><stop offset=".5" stop-color="#141220"/><stop offset="1" stop-color="#1C172B"/></linearGradient>
<linearGradient id="metal" x1="0" y1="0" x2="1" y2="1"><stop stop-color="#F5DFF1"/><stop offset=".3" stop-color="#CAB4F6"/><stop offset=".6" stop-color="#6C4B9B"/><stop offset=".8" stop-color="#E2C6ED"/><stop offset="1" stop-color="#9D77D9"/></linearGradient>
<linearGradient id="edge" x1="0" y1="0" x2="1" y2="1"><stop stop-color="#CFB5EB" stop-opacity=".7"/><stop offset=".25" stop-color="#8B70A9" stop-opacity=".25"/><stop offset=".68" stop-color="#554174" stop-opacity=".3"/><stop offset="1" stop-color="#CDAADF" stop-opacity=".7"/></linearGradient>
<linearGradient id="name" x1="0" y1="0" x2="1" y2=".8"><stop stop-color="#F2D8E7"/><stop offset=".53" stop-color="#DBC1F1"/><stop offset="1" stop-color="#AC91E8"/></linearGradient>
<linearGradient id="tile" x1="0" y1="0" x2=".8" y2="1"><stop stop-color="#30273F"/><stop offset=".45" stop-color="#1C1929"/><stop offset="1" stop-color="#14111F"/></linearGradient>
<linearGradient id="icon" x1="0" y1="0" x2=".6" y2="1"><stop stop-color="#FFF3FD"/><stop offset=".6" stop-color="#DCC8F7"/><stop offset="1" stop-color="#AE8BDD"/></linearGradient>
<linearGradient id="reflection"><stop stop-color="#FCEBFF" stop-opacity="0"/><stop offset=".5" stop-color="#FCEBFF" stop-opacity=".3"/><stop offset="1" stop-color="#FCEBFF" stop-opacity="0"/></linearGradient>
<linearGradient id="beam" x1="0" y1="1" x2="0" y2="0"><stop stop-color="#A67BF1" stop-opacity=".2"/><stop offset="1" stop-color="#A67BF1" stop-opacity="0"/></linearGradient>
<radialGradient id="halo"><stop stop-color="#BB80E1" stop-opacity=".25"/><stop offset=".4" stop-color="#8854C9" stop-opacity=".12"/><stop offset="1" stop-color="#7D4AB5" stop-opacity="0"/></radialGradient>
<radialGradient id="pinkhalo"><stop stop-color="#D8AACB" stop-opacity=".18"/><stop offset="1" stop-color="#D8AACB" stop-opacity="0"/></radialGradient>
<radialGradient id="orb"><stop stop-color="#F6D9EF" stop-opacity=".4"/><stop offset=".45" stop-color="#A875E4" stop-opacity=".12"/><stop offset="1" stop-color="#A875E4" stop-opacity="0"/></radialGradient>
<filter id="glow" x="-70%" y="-70%" width="240%" height="240%"><feGaussianBlur stdDeviation="3" result="blur"/><feMerge><feMergeNode in="blur"/><feMergeNode in="SourceGraphic"/></feMerge></filter>
<filter id="soft" x="-100%" y="-100%" width="300%" height="300%"><feGaussianBlur stdDeviation="8"/></filter>
<filter id="shadow" x="-30%" y="-30%" width="170%" height="190%"><feDropShadow dx="0" dy="12" stdDeviation="10" flood-color="#000000" flood-opacity=".6"/></filter>
<pattern id="dots" width="22" height="22" patternUnits="userSpaceOnUse"><circle cx="1" cy="1" r=".65" fill="#C7ABD9" opacity=".14"/></pattern>
<pattern id="scanlines" width="4" height="4" patternUnits="userSpaceOnUse"><path d="M0 0H4" stroke="#D8BFF1" stroke-opacity=".022"/></pattern>
</defs><style>.still{display:inline}*{animation:none!important}</style><path d="M24 1H596L619 24V746L596 769H24L1 746V24Z" fill="url(#bg)" stroke="url(#edge)"/><path d="M34 10H586 M10 34V736 M34 760H586 M610 34V736" fill="none" stroke="#554268" stroke-opacity=".25"/><rect x="2" y="2" width="616" height="766" rx="22" fill="url(#dots)" opacity=".45"/><path d="M25 2H165 M618 65V135 M595 768H455 M2 705V635" fill="none" stroke="#B697D3" stroke-width="2" opacity=".55"/><ellipse cx="471.2" cy="323.4" rx="248.0" ry="462.0" fill="url(#halo)" class="breathe"/><ellipse cx="124.0" cy="50" rx="310" ry="250" fill="url(#pinkhalo)"/><text x="39" y="43" fill="#F2ECFF" font-family="'SFMono-Regular', Consolas, 'Liberation Mono', monospace" font-size="16" font-weight="700" text-anchor="start">SR</text><path d="M71 26V47" stroke="#654F7C"/><text x="87" y="42" fill="#A58CBF" font-family="'SFMono-Regular', Consolas, 'Liberation Mono', monospace" font-size="11" font-weight="500" text-anchor="start" letter-spacing="1.2">SHMY1234 / ENGINEERING</text><path d="M90.4 628L-300 700" stroke="#9270B9" stroke-opacity=".12" stroke-width=".7"/><path d="M121.0 628L-215 700" stroke="#9270B9" stroke-opacity=".12" stroke-width=".7"/><path d="M151.6 628L-130 700" stroke="#9270B9" stroke-opacity=".12" stroke-width=".7"/><path d="M182.2 628L-45 700" stroke="#9270B9" stroke-opacity=".12" stroke-width=".7"/><path d="M212.8 628L40 700" stroke="#9270B9" stroke-opacity=".12" stroke-width=".7"/><path d="M243.4 628L125 700" stroke="#9270B9" stroke-opacity=".12" stroke-width=".7"/><path d="M274.0 628L210 700" stroke="#9270B9" stroke-opacity=".12" stroke-width=".7"/><path d="M304.6 628L295 700" stroke="#9270B9" stroke-opacity=".12" stroke-width=".7"/><path d="M335.2 628L380 700" stroke="#9270B9" stroke-opacity=".12" stroke-width=".7"/><path d="M365.8 628L465 700" stroke="#9270B9" stroke-opacity=".12" stroke-width=".7"/><path d="M396.4 628L550 700" stroke="#9270B9" stroke-opacity=".12" stroke-width=".7"/><path d="M427.0 628L635 700" stroke="#9270B9" stroke-opacity=".12" stroke-width=".7"/><path d="M457.6 628L720 700" stroke="#9270B9" stroke-opacity=".12" stroke-width=".7"/><path d="M488.2 628L805 700" stroke="#9270B9" stroke-opacity=".12" stroke-width=".7"/><path d="M518.8 628L890 700" stroke="#9270B9" stroke-opacity=".12" stroke-width=".7"/><path d="M549.4 628L975 700" stroke="#9270B9" stroke-opacity=".12" stroke-width=".7"/><path d="M23 628.0H596" stroke="#9270B9" stroke-opacity=".12" stroke-width=".7"/><path d="M23 635.8H596" stroke="#9270B9" stroke-opacity=".12" stroke-width=".7"/><path d="M23 651.8H596" stroke="#9270B9" stroke-opacity=".12" stroke-width=".7"/><path d="M23 673.4H596" stroke="#9270B9" stroke-opacity=".12" stroke-width=".7"/><path d="M23 700.0H596" stroke="#9270B9" stroke-opacity=".12" stroke-width=".7"/><circle cx="172.6" cy="488.0" r="1.1" fill="#D9B6F1" opacity=".28" class="spark" style="animation-delay:-0s"/><circle cx="482.1" cy="612.9" r="1.1" fill="#D9B6F1" opacity=".28" class="spark" style="animation-delay:-1s"/><circle cx="156.4" cy="159.8" r="0.6" fill="#D9B6F1" opacity=".28" class="spark" style="animation-delay:-2s"/><circle cx="390.3" cy="184.3" r="0.6" fill="#D9B6F1" opacity=".28" class="spark" style="animation-delay:-3s"/><circle cx="327.8" cy="200.5" r="0.8" fill="#D9B6F1" opacity=".28" class="spark" style="animation-delay:-4s"/><circle cx="42.1" cy="147.0" r="1.1" fill="#D9B6F1" opacity=".28" class="spark" style="animation-delay:-5s"/><circle cx="371.8" cy="78.8" r="0.8" fill="#D9B6F1" opacity=".28" class="spark" style="animation-delay:-0s"/><circle cx="500.6" cy="121.8" r="0.8" fill="#D9B6F1" opacity=".28" class="spark" style="animation-delay:-1s"/><circle cx="496.0" cy="524.3" r="0.6" fill="#D9B6F1" opacity=".28" class="spark" style="animation-delay:-2s"/><circle cx="477.4" cy="226.6" r="0.6" fill="#D9B6F1" opacity=".28" class="spark" style="animation-delay:-3s"/><circle cx="302.5" cy="530.6" r="1.1" fill="#D9B6F1" opacity=".28" class="spark" style="animation-delay:-4s"/><circle cx="584.4" cy="479.1" r="0.8" fill="#D9B6F1" opacity=".28" class="spark" style="animation-delay:-5s"/><circle cx="389.0" cy="469.7" r="0.8" fill="#D9B6F1" opacity=".28" class="spark" style="animation-delay:-0s"/><circle cx="492.2" cy="556.9" r="0.8" fill="#D9B6F1" opacity=".28" class="spark" style="animation-delay:-1s"/><circle cx="418.8" cy="408.1" r="1.1" fill="#D9B6F1" opacity=".28" class="spark" style="animation-delay:-2s"/><circle cx="587.7" cy="338.6" r="1.1" fill="#D9B6F1" opacity=".28" class="spark" style="animation-delay:-3s"/><circle cx="277.7" cy="177.7" r="0.6" fill="#D9B6F1" opacity=".28" class="spark" style="animation-delay:-4s"/><circle cx="127.3" cy="287.3" r="0.8" fill="#D9B6F1" opacity=".28" class="spark" style="animation-delay:-5s"/><circle cx="286.9" cy="439.4" r="0.8" fill="#D9B6F1" opacity=".28" class="spark" style="animation-delay:-0s"/><circle cx="531.9" cy="422.1" r="1.1" fill="#D9B6F1" opacity=".28" class="spark" style="animation-delay:-1s"/><circle cx="159.2" cy="213.8" r="0.6" fill="#D9B6F1" opacity=".28" class="spark" style="animation-delay:-2s"/><circle cx="424.9" cy="150.0" r="0.8" fill="#D9B6F1" opacity=".28" class="spark" style="animation-delay:-3s"/><circle cx="396.2" cy="651.7" r="0.8" fill="#D9B6F1" opacity=".28" class="spark" style="animation-delay:-4s"/><circle cx="26.2" cy="328.8" r="0.6" fill="#D9B6F1" opacity=".28" class="spark" style="animation-delay:-5s"/><circle cx="153.2" cy="373.8" r="1.1" fill="#D9B6F1" opacity=".28" class="spark" style="animation-delay:-0s"/><circle cx="502.7" cy="459.8" r="0.6" fill="#D9B6F1" opacity=".28" class="spark" style="animation-delay:-1s"/><circle cx="442.9" cy="519.1" r="0.8" fill="#D9B6F1" opacity=".28" class="spark" style="animation-delay:-2s"/><circle cx="530.1" cy="559.9" r="0.6" fill="#D9B6F1" opacity=".28" class="spark" style="animation-delay:-3s"/><circle cx="427.1" cy="454.6" r="1.1" fill="#D9B6F1" opacity=".28" class="spark" style="animation-delay:-4s"/><circle cx="433.4" cy="153.6" r="1.1" fill="#D9B6F1" opacity=".28" class="spark" style="animation-delay:-5s"/><circle cx="369.0" cy="510.9" r="0.6" fill="#D9B6F1" opacity=".28" class="spark" style="animation-delay:-0s"/><circle cx="516.1" cy="96.0" r="1.1" fill="#D9B6F1" opacity=".28" class="spark" style="animation-delay:-1s"/><g transform="translate(150 338) rotate(-12)"><g class="drift"><rect width="210" height="87" rx="8" fill="#291C3B" fill-opacity=".22" stroke="#9E78C2" stroke-opacity=".24"/><path d="M14 19H151.2" stroke="#A17CC4" stroke-opacity=".22" stroke-width="2"/><path d="M14 33H105.0" stroke="#A17CC4" stroke-opacity=".22" stroke-width="2"/><path d="M14 47H172.2" stroke="#A17CC4" stroke-opacity=".22" stroke-width="2"/><path d="M14 61H79.8" stroke="#A17CC4" stroke-opacity=".22" stroke-width="2"/></g></g><g transform="translate(380 518) rotate(12)"><g class="drift"><rect width="158" height="87" rx="8" fill="#291C3B" fill-opacity=".22" stroke="#9E78C2" stroke-opacity=".24"/><path d="M14 19H113.8" stroke="#A17CC4" stroke-opacity=".22" stroke-width="2"/><path d="M14 33H79.0" stroke="#A17CC4" stroke-opacity=".22" stroke-width="2"/><path d="M14 47H129.6" stroke="#A17CC4" stroke-opacity=".22" stroke-width="2"/><path d="M14 61H60.0" stroke="#A17CC4" stroke-opacity=".22" stroke-width="2"/></g></g><g transform="translate(310 606) scale(0.97)"><ellipse rx="182" ry="42" cy="18" fill="#000" opacity=".65" filter="url(#soft)"/><ellipse rx="166" ry="38" cy="19" fill="#151021" stroke="url(#edge)" opacity="0.4"/><ellipse rx="173" ry="38" cy="9" fill="#151021" stroke="url(#edge)" opacity="0.55"/><ellipse rx="180" ry="38" cy="0" fill="#151021" stroke="url(#edge)" opacity="0.85"/><ellipse rx="151" ry="30" fill="url(#halo)" stroke="#6E4F90" stroke-width=".9"/><ellipse rx="116" ry="22" fill="none" stroke="#CFA6EC" stroke-opacity=".4" stroke-width="1.3"/><ellipse rx="153" ry="30" fill="none" stroke="#D0B1EA" stroke-width="2" class="wireflow" filter="url(#glow)"/><path d="M-112 -9L-68 -180H68L112 -9Z" fill="url(#beam)"/><ellipse rx="91" ry="19" fill="url(#orb)" class="pulse"/></g><g transform="translate(310 442) scale(0.97)"><g class="lift"><g class="still"><ellipse cx="0" cy="14" rx="227" ry="213" fill="url(#halo)"/><path d="M-25.73,-22.42 L-41.91,-75.66 L-84.32,3.61 Z" fill="url(#metal)" fill-opacity="0.070" stroke="#D4AFE9" stroke-width=".85" stroke-opacity=".4"/><path d="M87.70,-3.75 L32.76,28.55 L31.37,-68.35 Z" fill="url(#metal)" fill-opacity="0.318" stroke="#D4AFE9" stroke-width=".85" stroke-opacity=".4"/><path d="M-56.25,-21.90 L31.37,-68.35 L-41.91,-75.66 Z" fill="url(#metal)" fill-opacity="0.273" stroke="#D4AFE9" stroke-width=".85" stroke-opacity=".4"/><path d="M-56.25,-21.90 L-41.91,-75.66 L-84.32,3.61 Z" fill="url(#metal)" fill-opacity="0.160" stroke="#D4AFE9" stroke-width=".85" stroke-opacity=".4"/><path d="M-56.25,-21.90 L32.76,28.55 L31.37,-68.35 Z" fill="url(#metal)" fill-opacity="0.413" stroke="#D4AFE9" stroke-width=".85" stroke-opacity=".4"/><path d="M-56.25,-21.90 L-44.71,70.26 L32.76,28.55 Z" fill="url(#metal)" fill-opacity="0.387" stroke="#D4AFE9" stroke-width=".85" stroke-opacity=".4"/><path d="M-56.25,-21.90 L-44.71,70.26 L-84.32,3.61 Z" fill="url(#metal)" fill-opacity="0.230" stroke="#D4AFE9" stroke-width=".85" stroke-opacity=".4"/><path d="M-26.65,58.07 L-25.73,-22.42 L45.57,17.75 Z" fill="url(#metal)" fill-opacity="0.070" stroke="#D4AFE9" stroke-width=".85" stroke-opacity=".4"/><path d="M-26.65,58.07 L-44.71,70.26 L-84.32,3.61 Z" fill="url(#metal)" fill-opacity="0.070" stroke="#D4AFE9" stroke-width=".85" stroke-opacity=".4"/><path d="M-26.65,58.07 L-25.73,-22.42 L-84.32,3.61 Z" fill="url(#metal)" fill-opacity="0.070" stroke="#D4AFE9" stroke-width=".85" stroke-opacity=".4"/><path d="M39.83,-62.58 L31.37,-68.35 L-41.91,-75.66 Z" fill="url(#metal)" fill-opacity="0.091" stroke="#D4AFE9" stroke-width=".85" stroke-opacity=".4"/><path d="M39.83,-62.58 L-25.73,-22.42 L45.57,17.75 Z" fill="url(#metal)" fill-opacity="0.070" stroke="#D4AFE9" stroke-width=".85" stroke-opacity=".4"/><path d="M39.83,-62.58 L-25.73,-22.42 L-41.91,-75.66 Z" fill="url(#metal)" fill-opacity="0.070" stroke="#D4AFE9" stroke-width=".85" stroke-opacity=".4"/><path d="M39.83,-62.58 L87.70,-3.75 L31.37,-68.35 Z" fill="url(#metal)" fill-opacity="0.118" stroke="#D4AFE9" stroke-width=".85" stroke-opacity=".4"/><path d="M39.83,-62.58 L87.70,-3.75 L45.57,17.75 Z" fill="url(#metal)" fill-opacity="0.070" stroke="#D4AFE9" stroke-width=".85" stroke-opacity=".4"/><path d="M42.35,76.44 L-44.71,70.26 L32.76,28.55 Z" fill="url(#metal)" fill-opacity="0.275" stroke="#D4AFE9" stroke-width=".85" stroke-opacity=".4"/><path d="M42.35,76.44 L87.70,-3.75 L32.76,28.55 Z" fill="url(#metal)" fill-opacity="0.233" stroke="#D4AFE9" stroke-width=".85" stroke-opacity=".4"/><path d="M42.35,76.44 L87.70,-3.75 L45.57,17.75 Z" fill="url(#metal)" fill-opacity="0.070" stroke="#D4AFE9" stroke-width=".85" stroke-opacity=".4"/><path d="M42.35,76.44 L-26.65,58.07 L-44.71,70.26 Z" fill="url(#metal)" fill-opacity="0.070" stroke="#D4AFE9" stroke-width=".85" stroke-opacity=".4"/><path d="M42.35,76.44 L-26.65,58.07 L45.57,17.75 Z" fill="url(#metal)" fill-opacity="0.070" stroke="#D4AFE9" stroke-width=".85" stroke-opacity=".4"/><circle cx="-25.73" cy="-22.42" r="2.4" fill="#FFE4FA" opacity=".9"/><circle cx="31.37" cy="-68.35" r="2.4" fill="#FFE4FA" opacity=".9"/><circle cx="-26.65" cy="58.07" r="2.4" fill="#FFE4FA" opacity=".9"/><circle cx="32.76" cy="28.55" r="2.4" fill="#FFE4FA" opacity=".9"/><circle cx="-41.91" cy="-75.66" r="2.4" fill="#FFE4FA" opacity=".9"/><circle cx="-44.71" cy="70.26" r="2.4" fill="#FFE4FA" opacity=".9"/><circle cx="39.83" cy="-62.58" r="2.4" fill="#FFE4FA" opacity=".9"/><circle cx="42.35" cy="76.44" r="2.4" fill="#FFE4FA" opacity=".9"/><circle cx="-84.32" cy="3.61" r="2.4" fill="#FFE4FA" opacity=".9"/><circle cx="45.57" cy="17.75" r="2.4" fill="#FFE4FA" opacity=".9"/><circle cx="-56.25" cy="-21.90" r="2.4" fill="#FFE4FA" opacity=".9"/><circle cx="87.70" cy="-3.75" r="2.4" fill="#FFE4FA" opacity=".9"/><circle r="73" fill="url(#orb)" class="breathe"/><path d="M172.64,-66.96 L195.67,-44.38 L195.85,-40.14 L172.90,-62.89 Z" fill="#4B335F" opacity="0.28" stroke="#4B335F" stroke-width=".2"/><path d="M195.67,-44.38 L207.53,-15.32 L207.67,-10.91 L195.85,-40.14 Z" fill="#4B335F" opacity="0.31" stroke="#4B335F" stroke-width=".2"/><path d="M207.53,-15.32 L204.73,19.16 L204.90,23.71 L207.67,-10.91 Z" fill="#4B335F" opacity="0.34" stroke="#4B335F" stroke-width=".2"/><path d="M204.73,19.16 L184.38,56.74 L184.67,61.37 L204.90,23.71 Z" fill="#4B335F" opacity="0.36" stroke="#4B335F" stroke-width=".2"/><path d="M184.38,56.74 L145.49,93.62 L146.00,98.28 L184.67,61.37 Z" fill="#4B335F" opacity="0.38" stroke="#4B335F" stroke-width=".2"/><path d="M145.49,93.62 L90.28,125.00 L91.12,129.62 L146.00,98.28 Z" fill="#4B335F" opacity="0.40" stroke="#4B335F" stroke-width=".2"/><path d="M90.28,125.00 L24.74,146.15 L25.96,150.68 L91.12,129.62 Z" fill="#4B335F" opacity="0.40" stroke="#4B335F" stroke-width=".2"/><path d="M24.74,146.15 L-42.52,153.99 L-40.94,158.41 L25.96,150.68 Z" fill="#4B335F" opacity="0.40" stroke="#4B335F" stroke-width=".2"/><path d="M-42.52,153.99 L-102.70,148.10 L-100.85,152.39 L-40.94,158.41 Z" fill="#4B335F" opacity="0.38" stroke="#4B335F" stroke-width=".2"/><path d="M-102.70,148.10 L-149.30,130.52 L-147.31,134.69 L-100.85,152.39 Z" fill="#4B335F" opacity="0.36" stroke="#4B335F" stroke-width=".2"/><path d="M-149.30,130.52 L-179.26,104.81 L-177.25,108.84 L-147.31,134.69 Z" fill="#4B335F" opacity="0.34" stroke="#4B335F" stroke-width=".2"/><path d="M-179.26,104.81 L-192.61,74.71 L-190.67,78.61 L-177.25,108.84 Z" fill="#4B335F" opacity="0.31" stroke="#4B335F" stroke-width=".2"/><path d="M-192.61,74.71 L-191.28,43.39 L-189.47,47.17 L-190.67,78.61 Z" fill="#4B335F" opacity="0.28" stroke="#4B335F" stroke-width=".2"/><path d="M-191.28,43.39 L-178.01,13.14 L-176.36,16.82 L-189.47,47.17 Z" fill="#4B335F" opacity="0.25" stroke="#4B335F" stroke-width=".2"/><path d="M-178.01,13.14 L-155.52,-14.56 L-154.05,-10.97 L-176.36,16.82 Z" fill="#4B335F" opacity="0.22" stroke="#4B335F" stroke-width=".2"/><path d="M-155.52,-14.56 L-126.21,-38.84 L-124.90,-35.32 L-154.05,-10.97 Z" fill="#4B335F" opacity="0.20" stroke="#4B335F" stroke-width=".2"/><path d="M-126.21,-38.84 L-92.00,-59.20 L-90.85,-55.72 L-124.90,-35.32 Z" fill="#4B335F" opacity="0.18" stroke="#4B335F" stroke-width=".2"/><path d="M-92.00,-59.20 L-54.42,-75.34 L-53.42,-71.87 L-90.85,-55.72 Z" fill="#4B335F" opacity="0.16" stroke="#4B335F" stroke-width=".2"/><path d="M-54.42,-75.34 L-14.73,-87.03 L-13.87,-83.53 L-53.42,-71.87 Z" fill="#4B335F" opacity="0.16" stroke="#4B335F" stroke-width=".2"/><path d="M-14.73,-87.03 L25.95,-93.99 L26.68,-90.43 L-13.87,-83.53 Z" fill="#4B335F" opacity="0.16" stroke="#4B335F" stroke-width=".2"/><path d="M25.95,-93.99 L66.50,-95.90 L67.11,-92.26 L26.68,-90.43 Z" fill="#4B335F" opacity="0.18" stroke="#4B335F" stroke-width=".2"/><path d="M66.50,-95.90 L105.64,-92.35 L106.12,-88.59 L67.11,-92.26 Z" fill="#4B335F" opacity="0.20" stroke="#4B335F" stroke-width=".2"/><path d="M105.64,-92.35 L141.72,-82.86 L142.09,-78.95 L106.12,-88.59 Z" fill="#4B335F" opacity="0.22" stroke="#4B335F" stroke-width=".2"/><path d="M141.72,-82.86 L172.64,-66.96 L172.90,-62.89 L142.09,-78.95 Z" fill="#4B335F" opacity="0.25" stroke="#4B335F" stroke-width=".2"/><path d="M165.20,-64.07 L172.64,-66.96 L195.67,-44.38 L186.70,-42.35 Z" fill="url(#metal)" opacity="0.28" stroke="url(#metal)" stroke-width=".2"/><path d="M186.70,-42.35 L195.67,-44.38 L207.53,-15.32 L197.38,-14.57 Z" fill="url(#metal)" opacity="0.31" stroke="url(#metal)" stroke-width=".2"/><path d="M197.38,-14.57 L207.53,-15.32 L204.73,19.16 L194.06,18.16 Z" fill="url(#metal)" opacity="0.34" stroke="url(#metal)" stroke-width=".2"/><path d="M194.06,18.16 L204.73,19.16 L184.38,56.74 L174.20,53.61 Z" fill="url(#metal)" opacity="0.36" stroke="url(#metal)" stroke-width=".2"/><path d="M174.20,53.61 L184.38,56.74 L145.49,93.62 L137.09,88.22 Z" fill="url(#metal)" opacity="0.38" stroke="url(#metal)" stroke-width=".2"/><path d="M137.09,88.22 L145.49,93.62 L90.28,125.00 L84.92,117.57 Z" fill="url(#metal)" opacity="0.40" stroke="url(#metal)" stroke-width=".2"/><path d="M84.92,117.57 L90.28,125.00 L24.74,146.15 L23.26,137.40 Z" fill="url(#metal)" opacity="0.40" stroke="url(#metal)" stroke-width=".2"/><path d="M23.26,137.40 L24.74,146.15 L-42.52,153.99 L-40.01,144.91 Z" fill="url(#metal)" opacity="0.40" stroke="url(#metal)" stroke-width=".2"/><path d="M-40.01,144.91 L-42.52,153.99 L-102.70,148.10 L-96.85,139.66 Z" fill="url(#metal)" opacity="0.38" stroke="url(#metal)" stroke-width=".2"/><path d="M-96.85,139.66 L-102.70,148.10 L-149.30,130.52 L-141.21,123.45 Z" fill="url(#metal)" opacity="0.36" stroke="url(#metal)" stroke-width=".2"/><path d="M-141.21,123.45 L-149.30,130.52 L-179.26,104.81 L-170.11,99.46 Z" fill="url(#metal)" opacity="0.34" stroke="url(#metal)" stroke-width=".2"/><path d="M-170.11,99.46 L-179.26,104.81 L-192.61,74.71 L-183.39,71.13 Z" fill="url(#metal)" opacity="0.31" stroke="url(#metal)" stroke-width=".2"/><path d="M-183.39,71.13 L-192.61,74.71 L-191.28,43.39 L-182.70,41.44 Z" fill="url(#metal)" opacity="0.28" stroke="url(#metal)" stroke-width=".2"/><path d="M-182.70,41.44 L-191.28,43.39 L-178.01,13.14 L-170.49,12.59 Z" fill="url(#metal)" opacity="0.25" stroke="url(#metal)" stroke-width=".2"/><path d="M-170.49,12.59 L-178.01,13.14 L-155.52,-14.56 L-149.29,-13.97 Z" fill="url(#metal)" opacity="0.22" stroke="url(#metal)" stroke-width=".2"/><path d="M-149.29,-13.97 L-155.52,-14.56 L-126.21,-38.84 L-121.36,-37.34 Z" fill="url(#metal)" opacity="0.20" stroke="url(#metal)" stroke-width=".2"/><path d="M-121.36,-37.34 L-126.21,-38.84 L-92.00,-59.20 L-88.56,-56.99 Z" fill="url(#metal)" opacity="0.18" stroke="url(#metal)" stroke-width=".2"/><path d="M-88.56,-56.99 L-92.00,-59.20 L-54.42,-75.34 L-52.43,-72.58 Z" fill="url(#metal)" opacity="0.16" stroke="url(#metal)" stroke-width=".2"/><path d="M-52.43,-72.58 L-54.42,-75.34 L-14.73,-87.03 L-14.20,-83.85 Z" fill="url(#metal)" opacity="0.16" stroke="url(#metal)" stroke-width=".2"/><path d="M-14.20,-83.85 L-14.73,-87.03 L25.95,-93.99 L24.99,-90.53 Z" fill="url(#metal)" opacity="0.16" stroke="url(#metal)" stroke-width=".2"/><path d="M24.99,-90.53 L25.95,-93.99 L66.50,-95.90 L64.00,-92.29 Z" fill="url(#metal)" opacity="0.18" stroke="url(#metal)" stroke-width=".2"/><path d="M64.00,-92.29 L66.50,-95.90 L105.64,-92.35 L101.52,-88.75 Z" fill="url(#metal)" opacity="0.20" stroke="url(#metal)" stroke-width=".2"/><path d="M101.52,-88.75 L105.64,-92.35 L141.72,-82.86 L135.94,-79.48 Z" fill="url(#metal)" opacity="0.22" stroke="url(#metal)" stroke-width=".2"/><path d="M135.94,-79.48 L141.72,-82.86 L172.64,-66.96 L165.20,-64.07 Z" fill="url(#metal)" opacity="0.25" stroke="url(#metal)" stroke-width=".2"/><defs><path id="ring0still" d="M168.92,-65.52 L178.35,-57.97 L186.52,-49.51 L193.26,-40.14 L198.40,-29.90 L201.75,-18.82 L203.14,-6.97 L202.40,5.56 L199.37,18.66 L193.93,32.18 L185.98,45.94 L175.48,59.76 L162.45,73.40 L146.95,86.63 L129.14,99.18 L109.26,110.81 L87.58,121.26 L64.49,130.30 L40.39,137.75 L15.75,143.44 L-8.97,147.27 L-33.31,149.20 L-56.81,149.23 L-79.07,147.41 L-99.75,143.85 L-118.57,138.68 L-135.31,132.08 L-149.82,124.22 L-162.02,115.31 L-171.90,105.54 L-179.47,95.10 L-184.80,84.17 L-187.99,72.92 L-189.17,61.49 L-188.45,50.03 L-185.99,38.63 L-181.92,27.41 L-176.39,16.45 L-169.55,5.81 L-161.51,-4.44 L-152.41,-14.26 L-142.36,-23.62 L-131.47,-32.48 L-119.84,-40.81 L-107.55,-48.60 L-94.69,-55.82 L-81.34,-62.47 L-67.56,-68.52 L-53.43,-73.97 L-39.00,-78.80 L-24.34,-83.00 L-9.50,-86.56 L5.45,-89.46 L20.47,-91.68 L35.48,-93.21 L50.43,-94.02 L65.26,-94.10 L79.88,-93.43 L94.22,-91.97 L108.20,-89.71 L121.71,-86.62 L134.67,-82.68 L146.94,-77.86 L158.40,-72.14 L168.92,-65.52 Z"/></defs><use xlink:href="#ring0still" fill="none" stroke="#7A529E" stroke-width="8" opacity="0.17" filter="url(#glow)"/><use xlink:href="#ring0still" fill="none" stroke="#3B294A" stroke-width="2.5" opacity="0.8"/><use xlink:href="#ring0still" fill="none" stroke="url(#metal)" stroke-width="1.15" opacity="0.95"/><use xlink:href="#ring0still" fill="none" stroke="#FBEAFF" stroke-width="0.5" opacity="0.8"/><use xlink:href="#ring0still" fill="none" stroke="#CEACF0" stroke-width="2.8" stroke-linecap="round" stroke-dasharray="36 820" class="wireflow" style="animation-delay:-0s" filter="url(#glow)"/><circle cx="168.92" cy="-65.52" r="3.5" fill="#FFE4F4" filter="url(#glow)"/><path d="M62.93,152.02 L28.48,168.64 L25.79,168.10 L60.11,151.61 Z" fill="#4B335F" opacity="0.38" stroke="#4B335F" stroke-width=".2"/><path d="M28.48,168.64 L-10.49,174.43 L-13.01,173.84 L25.79,168.10 Z" fill="#4B335F" opacity="0.39" stroke="#4B335F" stroke-width=".2"/><path d="M-10.49,174.43 L-51.45,167.79 L-53.77,167.23 L-13.01,173.84 Z" fill="#4B335F" opacity="0.40" stroke="#4B335F" stroke-width=".2"/><path d="M-51.45,167.79 L-91.12,148.00 L-93.22,147.56 L-53.77,167.23 Z" fill="#4B335F" opacity="0.40" stroke="#4B335F" stroke-width=".2"/><path d="M-91.12,148.00 L-125.78,115.72 L-127.67,115.51 L-93.22,147.56 Z" fill="#4B335F" opacity="0.39" stroke="#4B335F" stroke-width=".2"/><path d="M-125.78,115.72 L-151.78,73.23 L-153.50,73.34 L-127.67,115.51 Z" fill="#4B335F" opacity="0.37" stroke="#4B335F" stroke-width=".2"/><path d="M-151.78,73.23 L-166.24,24.34 L-167.85,24.82 L-153.50,73.34 Z" fill="#4B335F" opacity="0.34" stroke="#4B335F" stroke-width=".2"/><path d="M-166.24,24.34 L-167.64,-26.17 L-169.22,-25.31 L-167.85,24.82 Z" fill="#4B335F" opacity="0.32" stroke="#4B335F" stroke-width=".2"/><path d="M-167.64,-26.17 L-156.16,-73.39 L-157.80,-72.19 L-169.22,-25.31 Z" fill="#4B335F" opacity="0.29" stroke="#4B335F" stroke-width=".2"/><path d="M-156.16,-73.39 L-133.50,-113.11 L-135.26,-111.66 L-157.80,-72.19 Z" fill="#4B335F" opacity="0.25" stroke="#4B335F" stroke-width=".2"/><path d="M-133.50,-113.11 L-102.44,-142.43 L-104.36,-140.83 L-135.26,-111.66 Z" fill="#4B335F" opacity="0.22" stroke="#4B335F" stroke-width=".2"/><path d="M-102.44,-142.43 L-66.20,-159.92 L-68.31,-158.25 L-104.36,-140.83 Z" fill="#4B335F" opacity="0.20" stroke="#4B335F" stroke-width=".2"/><path d="M-66.20,-159.92 L-27.94,-165.43 L-30.22,-163.79 L-68.31,-158.25 Z" fill="#4B335F" opacity="0.18" stroke="#4B335F" stroke-width=".2"/><path d="M-27.94,-165.43 L9.61,-159.78 L7.16,-158.22 L-30.22,-163.79 Z" fill="#4B335F" opacity="0.17" stroke="#4B335F" stroke-width=".2"/><path d="M9.61,-159.78 L44.26,-144.35 L41.68,-142.93 L7.16,-158.22 Z" fill="#4B335F" opacity="0.16" stroke="#4B335F" stroke-width=".2"/><path d="M44.26,-144.35 L74.36,-120.78 L71.66,-119.54 L41.68,-142.93 Z" fill="#4B335F" opacity="0.16" stroke="#4B335F" stroke-width=".2"/><path d="M74.36,-120.78 L98.73,-90.83 L95.93,-89.78 L71.66,-119.54 Z" fill="#4B335F" opacity="0.17" stroke="#4B335F" stroke-width=".2"/><path d="M98.73,-90.83 L116.50,-56.21 L113.62,-55.37 L95.93,-89.78 Z" fill="#4B335F" opacity="0.19" stroke="#4B335F" stroke-width=".2"/><path d="M116.50,-56.21 L127.05,-18.60 L124.12,-17.98 L113.62,-55.37 Z" fill="#4B335F" opacity="0.22" stroke="#4B335F" stroke-width=".2"/><path d="M127.05,-18.60 L129.97,20.29 L127.01,20.69 L124.12,-17.98 Z" fill="#4B335F" opacity="0.24" stroke="#4B335F" stroke-width=".2"/><path d="M129.97,20.29 L124.98,58.73 L122.00,58.91 L127.01,20.69 Z" fill="#4B335F" opacity="0.27" stroke="#4B335F" stroke-width=".2"/><path d="M124.98,58.73 L111.97,94.87 L109.01,94.83 L122.00,58.91 Z" fill="#4B335F" opacity="0.31" stroke="#4B335F" stroke-width=".2"/><path d="M111.97,94.87 L91.12,126.69 L88.20,126.45 L109.01,94.83 Z" fill="#4B335F" opacity="0.34" stroke="#4B335F" stroke-width=".2"/><path d="M91.12,126.69 L62.93,152.02 L60.11,151.61 L88.20,126.45 Z" fill="#4B335F" opacity="0.36" stroke="#4B335F" stroke-width=".2"/><path d="M59.67,144.14 L62.93,152.02 L28.48,168.64 L26.96,159.60 Z" fill="url(#metal)" opacity="0.38" stroke="url(#metal)" stroke-width=".2"/><path d="M26.96,159.60 L28.48,168.64 L-10.49,174.43 L-9.91,164.77 Z" fill="url(#metal)" opacity="0.39" stroke="url(#metal)" stroke-width=".2"/><path d="M-9.91,164.77 L-10.49,174.43 L-51.45,167.79 L-48.50,158.20 Z" fill="url(#metal)" opacity="0.40" stroke="url(#metal)" stroke-width=".2"/><path d="M-48.50,158.20 L-51.45,167.79 L-91.12,148.00 L-85.77,139.31 Z" fill="url(#metal)" opacity="0.40" stroke="url(#metal)" stroke-width=".2"/><path d="M-85.77,139.31 L-91.12,148.00 L-125.78,115.72 L-118.24,108.78 Z" fill="url(#metal)" opacity="0.39" stroke="url(#metal)" stroke-width=".2"/><path d="M-118.24,108.78 L-125.78,115.72 L-151.78,73.23 L-142.58,68.79 Z" fill="url(#metal)" opacity="0.37" stroke="url(#metal)" stroke-width=".2"/><path d="M-142.58,68.79 L-151.78,73.23 L-166.24,24.34 L-156.13,22.86 Z" fill="url(#metal)" opacity="0.34" stroke="url(#metal)" stroke-width=".2"/><path d="M-156.13,22.86 L-166.24,24.34 L-167.64,-26.17 L-157.53,-24.59 Z" fill="url(#metal)" opacity="0.32" stroke="url(#metal)" stroke-width=".2"/><path d="M-157.53,-24.59 L-167.64,-26.17 L-156.16,-73.39 L-146.89,-69.03 Z" fill="url(#metal)" opacity="0.29" stroke="url(#metal)" stroke-width=".2"/><path d="M-146.89,-69.03 L-156.16,-73.39 L-133.50,-113.11 L-125.77,-106.56 Z" fill="url(#metal)" opacity="0.25" stroke="url(#metal)" stroke-width=".2"/><path d="M-125.77,-106.56 L-133.50,-113.11 L-102.44,-142.43 L-96.68,-134.42 Z" fill="url(#metal)" opacity="0.22" stroke="url(#metal)" stroke-width=".2"/><path d="M-96.68,-134.42 L-102.44,-142.43 L-66.20,-159.92 L-62.60,-151.22 Z" fill="url(#metal)" opacity="0.20" stroke="url(#metal)" stroke-width=".2"/><path d="M-62.60,-151.22 L-66.20,-159.92 L-27.94,-165.43 L-26.47,-156.73 Z" fill="url(#metal)" opacity="0.18" stroke="url(#metal)" stroke-width=".2"/><path d="M-26.47,-156.73 L-27.94,-165.43 L9.61,-159.78 L9.12,-151.64 Z" fill="url(#metal)" opacity="0.17" stroke="url(#metal)" stroke-width=".2"/><path d="M9.12,-151.64 L9.61,-159.78 L44.26,-144.35 L42.06,-137.19 Z" fill="url(#metal)" opacity="0.16" stroke="url(#metal)" stroke-width=".2"/><path d="M42.06,-137.19 L44.26,-144.35 L74.36,-120.78 L70.76,-114.93 Z" fill="url(#metal)" opacity="0.16" stroke="url(#metal)" stroke-width=".2"/><path d="M70.76,-114.93 L74.36,-120.78 L98.73,-90.83 L94.02,-86.50 Z" fill="url(#metal)" opacity="0.17" stroke="url(#metal)" stroke-width=".2"/><path d="M94.02,-86.50 L98.73,-90.83 L116.50,-56.21 L110.99,-53.55 Z" fill="url(#metal)" opacity="0.19" stroke="url(#metal)" stroke-width=".2"/><path d="M110.99,-53.55 L116.50,-56.21 L127.05,-18.60 L121.06,-17.73 Z" fill="url(#metal)" opacity="0.22" stroke="url(#metal)" stroke-width=".2"/><path d="M121.06,-17.73 L127.05,-18.60 L129.97,20.29 L123.81,19.33 Z" fill="url(#metal)" opacity="0.24" stroke="url(#metal)" stroke-width=".2"/><path d="M123.81,19.33 L129.97,20.29 L124.98,58.73 L118.97,55.91 Z" fill="url(#metal)" opacity="0.27" stroke="url(#metal)" stroke-width=".2"/><path d="M118.97,55.91 L124.98,58.73 L111.97,94.87 L106.48,90.22 Z" fill="url(#metal)" opacity="0.31" stroke="url(#metal)" stroke-width=".2"/><path d="M106.48,90.22 L111.97,94.87 L91.12,126.69 L86.53,120.31 Z" fill="url(#metal)" opacity="0.34" stroke="url(#metal)" stroke-width=".2"/><path d="M86.53,120.31 L91.12,126.69 L62.93,152.02 L59.67,144.14 Z" fill="url(#metal)" opacity="0.36" stroke="url(#metal)" stroke-width=".2"/><defs><path id="ring1still" d="M61.30,148.08 L49.34,155.21 L36.60,161.02 L23.18,165.42 L9.17,168.29 L-5.30,169.55 L-20.08,169.12 L-35.03,166.95 L-49.97,162.98 L-64.74,157.22 L-79.14,149.66 L-92.97,140.34 L-106.06,129.34 L-118.20,116.76 L-129.20,102.73 L-138.91,87.41 L-147.16,71.00 L-153.83,53.71 L-158.81,35.78 L-162.04,17.46 L-163.47,-1.00 L-163.09,-19.33 L-160.93,-37.30 L-157.04,-54.67 L-151.51,-71.20 L-144.45,-86.71 L-135.98,-101.02 L-126.25,-113.99 L-115.42,-125.50 L-103.66,-135.46 L-91.12,-143.81 L-77.98,-150.51 L-64.40,-155.57 L-50.54,-158.97 L-36.54,-160.77 L-22.55,-160.98 L-8.70,-159.69 L4.90,-156.94 L18.14,-152.82 L30.93,-147.40 L43.16,-140.78 L54.78,-133.03 L65.70,-124.25 L75.87,-114.52 L85.23,-103.95 L93.74,-92.61 L101.36,-80.59 L108.04,-67.99 L113.75,-54.88 L118.47,-41.37 L122.18,-27.53 L124.84,-13.45 L126.44,0.77 L126.96,15.05 L126.40,29.30 L124.74,43.42 L121.98,57.32 L118.12,70.91 L113.15,84.06 L107.09,96.69 L99.96,108.69 L91.78,119.94 L82.58,130.33 L72.40,139.75 L61.30,148.08 Z"/></defs><use xlink:href="#ring1still" fill="none" stroke="#7A529E" stroke-width="8" opacity="0.17" filter="url(#glow)"/><use xlink:href="#ring1still" fill="none" stroke="#3B294A" stroke-width="2.5" opacity="0.8"/><use xlink:href="#ring1still" fill="none" stroke="url(#metal)" stroke-width="1.15" opacity="0.95"/><use xlink:href="#ring1still" fill="none" stroke="#FBEAFF" stroke-width="0.5" opacity="0.8"/><use xlink:href="#ring1still" fill="none" stroke="#E8C7DC" stroke-width="2.8" stroke-linecap="round" stroke-dasharray="36 820" class="wireflow" style="animation-delay:-2s" filter="url(#glow)"/><circle cx="-163.54" cy="-7.84" r="3.5" fill="#FFE4F4" filter="url(#glow)"/><defs><path id="ring2still" d="M76.35,107.19 L73.13,110.61 L69.04,113.03 L64.09,114.38 L58.27,114.58 L51.62,113.55 L44.17,111.25 L35.98,107.64 L27.14,102.71 L17.74,96.48 L7.90,88.97 L-2.24,80.27 L-12.54,70.48 L-22.83,59.71 L-32.95,48.14 L-42.74,35.94 L-52.02,23.29 L-60.66,10.42 L-68.52,-2.47 L-75.48,-15.17 L-81.46,-27.50 L-86.39,-39.26 L-90.23,-50.31 L-92.96,-60.51 L-94.59,-69.74 L-95.15,-77.94 L-94.69,-85.04 L-93.25,-91.01 L-90.92,-95.83 L-87.76,-99.51 L-83.84,-102.09 L-79.27,-103.58 L-74.10,-104.03 L-68.43,-103.50 L-62.33,-102.04 L-55.86,-99.70 L-49.11,-96.56 L-42.12,-92.66 L-34.97,-88.08 L-27.70,-82.86 L-20.36,-77.06 L-13.01,-70.74 L-5.68,-63.94 L1.58,-56.73 L8.74,-49.14 L15.76,-41.23 L22.61,-33.03 L29.25,-24.59 L35.64,-15.96 L41.77,-7.18 L47.58,1.71 L53.06,10.66 L58.16,19.63 L62.85,28.56 L67.09,37.41 L70.85,46.12 L74.09,54.63 L76.76,62.88 L78.83,70.80 L80.26,78.33 L81.00,85.38 L81.02,91.87 L80.27,97.74 L78.73,102.87 L76.35,107.19 Z"/></defs><use xlink:href="#ring2still" fill="none" stroke="#7A529E" stroke-width="8" opacity="0.17" filter="url(#glow)"/><use xlink:href="#ring2still" fill="none" stroke="#3B294A" stroke-width="2.5" opacity="0.8"/><use xlink:href="#ring2still" fill="none" stroke="url(#metal)" stroke-width="1.15" opacity="0.95"/><use xlink:href="#ring2still" fill="none" stroke="#FBEAFF" stroke-width="0.5" opacity="0.8"/><use xlink:href="#ring2still" fill="none" stroke="#A78CE2" stroke-width="2.8" stroke-linecap="round" stroke-dasharray="36 820" class="wireflow" style="animation-delay:-4s" filter="url(#glow)"/><circle cx="-14.89" cy="-72.40" r="3.5" fill="#FFE4F4" filter="url(#glow)"/></g></g></g><text x="39" y="92" fill="#BAA0F0" font-family="'SFMono-Regular', Consolas, 'Liberation Mono', monospace" font-size="12" font-weight="400" text-anchor="start" letter-spacing="1.7">SOFTWARE  &#215;  INTELLIGENCE</text><text x="35" y="158" fill="url(#name)" font-family="Arial, Helvetica, sans-serif" font-size="61" font-weight="700" text-anchor="start" letter-spacing="-2.6">Sahil Regonda</text><text x="40" y="197" fill="#E4DAF0" font-family="Arial, Helvetica, sans-serif" font-size="21" font-weight="500" text-anchor="start">Software Engineer &#183; AI / ML Builder</text><text x="40" y="231" fill="#9B93AE" font-family="Arial, Helvetica, sans-serif" font-size="18" font-weight="400" text-anchor="start">From a good idea to a working system.</text><g transform="translate(77 348)"><path d="M0 0H87L95 8V30H8L0 22Z" fill="#171322" fill-opacity=".9" stroke="#67527F" stroke-width=".7"/><circle cx="13" cy="15" r="2.3" fill="#D5B6EE" class="pulse"/><text x="26" y="19" fill="#BCA8D0" font-family="'SFMono-Regular', Consolas, 'Liberation Mono', monospace" font-size="10" font-weight="500" text-anchor="start">MODEL</text></g><g transform="translate(446 543)"><path d="M0 0H87L95 8V30H8L0 22Z" fill="#171322" fill-opacity=".9" stroke="#67527F" stroke-width=".7"/><circle cx="13" cy="15" r="2.3" fill="#D5B6EE" class="pulse"/><text x="26" y="19" fill="#BCA8D0" font-family="'SFMono-Regular', Consolas, 'Liberation Mono', monospace" font-size="10" font-weight="500" text-anchor="start">API</text></g><text x="40" y="736" fill="#CDB8DC" font-family="'SFMono-Regular', Consolas, 'Liberation Mono', monospace" font-size="11" font-weight="400" text-anchor="start">TORONTO, CA</text><text x="580" y="736" fill="#9B93AE" font-family="'SFMono-Regular', Consolas, 'Liberation Mono', monospace" font-size="10" font-weight="400" text-anchor="end">SOFTWARE &#215; INTELLIGENCE</text><rect x="15" y="16" width="590" height="738" fill="url(#scanlines)" pointer-events="none"/></svg>